<svg width="1024" height="1024" viewBox="0 0 1024 1024" xmlns="http://www.w3.org/2000/svg">
  <defs>
    <linearGradient id="bg" x1="0%" y1="0%" x2="100%" y2="100%">
      <stop offset="0%" stop-color="#0F1A2B"/>
      <stop offset="100%" stop-color="#09111E"/>
    </linearGradient>
    <linearGradient id="nodeBlue" x1="0%" y1="0%" x2="100%" y2="100%">
      <stop offset="0%" stop-color="#54E0FF"/>
      <stop offset="100%" stop-color="#2563FF"/>
    </linearGradient>
    <linearGradient id="nodeCore" x1="0%" y1="0%" x2="100%" y2="100%">
      <stop offset="0%" stop-color="#FFC2C7"/>
      <stop offset="55%" stop-color="#FF7B82"/>
      <stop offset="100%" stop-color="#FF5B68"/>
    </linearGradient>
    <filter id="softGlow" x="-40%" y="-40%" width="180%" height="180%">
      <feGaussianBlur stdDeviation="18" result="blur"/>
      <feMerge>
        <feMergeNode in="blur"/>
        <feMergeNode in="SourceGraphic"/>
      </feMerge>
    </filter>
  </defs>

  <rect width="1024" height="1024" rx="224" fill="url(#bg)"/>
  <rect x="40" y="40" width="944" height="944" rx="184" fill="none" stroke="#88D8FF" stroke-opacity="0.08" stroke-width="8"/>

  <g opacity="0.8">
    <path d="M512 276 L670 367 L670 549 L512 640 L354 549 L354 367 Z" fill="none" stroke="#3AB9FF" stroke-width="18" stroke-linejoin="round"/>
    <line x1="512" y1="352" x2="512" y2="454" stroke="#73DDFF" stroke-width="18" stroke-linecap="round"/>
    <line x1="419" y1="458" x2="470" y2="458" stroke="#73DDFF" stroke-width="18" stroke-linecap="round"/>
    <line x1="554" y1="458" x2="605" y2="458" stroke="#73DDFF" stroke-width="18" stroke-linecap="round"/>
    <line x1="512" y1="561" x2="512" y2="662" stroke="#73DDFF" stroke-width="18" stroke-linecap="round"/>
  </g>

  <g fill="url(#nodeBlue)">
    <rect x="444" y="138" width="136" height="136" rx="40"/>
    <rect x="154" y="390" width="136" height="136" rx="40"/>
    <rect x="734" y="390" width="136" height="136" rx="40"/>
    <rect x="444" y="692" width="136" height="136" rx="40"/>
  </g>

  <g fill="#8EE8FF" opacity="0.6">
    <rect x="477" y="171" width="70" height="70" rx="22"/>
    <rect x="187" y="423" width="70" height="70" rx="22"/>
    <rect x="767" y="423" width="70" height="70" rx="22"/>
    <rect x="477" y="725" width="70" height="70" rx="22"/>
  </g>

  <g filter="url(#softGlow)">
    <rect x="402" y="348" width="220" height="220" rx="68" fill="url(#nodeCore)"/>
    <rect x="447" y="393" width="130" height="130" rx="38" fill="#FFA7A3" fill-opacity="0.92"/>
  </g>

  <g fill="#B4F4FF" opacity="0.9">
    <circle cx="512" cy="352" r="16"/>
    <circle cx="419" cy="458" r="16"/>
    <circle cx="605" cy="458" r="16"/>
    <circle cx="512" cy="662" r="16"/>
  </g>
</svg>
